<svg width="14" height="14" viewBox="0 0 14 14" fill="none" xmlns="http://www.w3.org/2000/svg">
<path d="M12.9322 13.3697C12.6758 13.6262 12.2608 13.6262 12.0041 13.3697L6.56252 7.92695L1.11974 13.3697C0.863272 13.6262 0.448317 13.6262 0.19156 13.3697C-0.0649111 13.1133 -0.0649111 12.6983 0.19156 12.4415L5.63556 7L0.19238 1.55723C-0.0640908 1.30076 -0.0640908 0.885802 0.19238 0.629044C0.448851 0.372574 0.863806 0.372574 1.12056 0.629044L6.56252 6.07305L12.0053 0.630275C12.2618 0.373804 12.6767 0.373804 12.9335 0.630275C13.1899 0.886745 13.1899 1.3017 12.9335 1.55846L7.48947 7L12.9322 12.4428C13.1906 12.6971 13.1906 13.1154 12.9322 13.3697Z" fill="#F9FAFB"/>
</svg>
