<svg width="20" height="12" viewBox="0 0 20 12" fill="none" xmlns="http://www.w3.org/2000/svg">
<path d="M0.45395 0.93918C0.735242 0.657973 1.1167 0.5 1.51445 0.5C1.9122 0.5 2.29366 0.657973 2.57495 0.93918L9.99995 8.36418L17.4249 0.93918C17.7079 0.665943 18.0868 0.514751 18.4801 0.518168C18.8733 0.521586 19.2496 0.67934 19.5277 0.957452C19.8058 1.23556 19.9635 1.61178 19.967 2.00508C19.9704 2.39837 19.8192 2.77728 19.5459 3.06018L11.0604 11.5457C10.7792 11.8269 10.3977 11.9849 9.99995 11.9849C9.6022 11.9849 9.22074 11.8269 8.93945 11.5457L0.45395 3.06018C0.172744 2.77889 0.0147705 2.39743 0.0147705 1.99968C0.0147705 1.60193 0.172744 1.22047 0.45395 0.93918Z" fill="black" fill-opacity="0.5"/>
</svg>
