<svg width="12" height="27" viewBox="0 0 12 27" fill="none" xmlns="http://www.w3.org/2000/svg">
<path d="M1.50001 9.63637H10.5C10.5911 9.63608 10.6805 9.61095 10.7584 9.56368C10.8363 9.51641 10.8998 9.44879 10.9421 9.36809C10.9844 9.2874 11.004 9.19669 10.9986 9.10573C10.9932 9.01476 10.9631 8.927 10.9115 8.85187L6.41151 2.35187C6.22501 2.08237 5.77601 2.08237 5.58901 2.35187L1.08901 8.85187C1.03692 8.92684 1.00638 9.01465 1.00069 9.10577C0.99501 9.19688 1.0144 9.28781 1.05677 9.36867C1.09913 9.44954 1.16285 9.51724 1.24099 9.56444C1.31914 9.61163 1.40872 9.63651 1.50001 9.63637Z" fill="black"/>
<path d="M10.5 16.6364H1.49999C1.40887 16.6367 1.31955 16.6618 1.24165 16.7091C1.16375 16.7563 1.10022 16.824 1.05789 16.9046C1.01556 16.9853 0.996045 17.076 1.00144 17.167C1.00683 17.258 1.03692 17.3457 1.08849 17.4209L5.58849 23.9209C5.77499 24.1904 6.22399 24.1904 6.41099 23.9209L10.911 17.4209C10.9631 17.3459 10.9936 17.2581 10.9993 17.167C11.005 17.0759 10.9856 16.9849 10.9432 16.9041C10.9009 16.8232 10.8371 16.7555 10.759 16.7083C10.6809 16.6611 10.5913 16.6362 10.5 16.6364Z" fill="black"/>
</svg>
