<svg width="26" height="26" viewBox="0 0 26 26" fill="none" xmlns="http://www.w3.org/2000/svg">
<path d="M23.7804 17.6341L22.3214 22.3774L19.4575 21.6242L23.7804 17.6341Z" fill="#E4761B" stroke="#E4761B" stroke-width="0.190386"/>
<path d="M19.4575 21.6242L22.2198 17.9848L23.7804 17.6341L19.4575 21.6242Z" fill="#E4761B" stroke="#E4761B" stroke-width="0.190386"/>
<path d="M21.6338 14.0579L23.7803 17.6341L22.2197 17.9848L21.6338 14.0579ZM21.6338 14.0579L23.015 13.138L23.7803 17.6341L21.6338 14.0579Z" fill="#F6851B" stroke="#F6851B" stroke-width="0.190386"/>
<path d="M19.876 11.3556L23.8462 9.79178L23.6488 10.6485L19.876 11.3556ZM23.5233 11.6776L19.876 11.3556L23.6488 10.6485L23.5233 11.6776Z" fill="#763D16" stroke="#763D16" stroke-width="0.190386"/>
<path d="M23.5233 11.6776L23.0151 13.138L19.876 11.3556L23.5233 11.6776ZM24.3185 10.154L23.6488 10.6485L23.8462 9.79178L24.3185 10.154ZM23.5233 11.6776L23.6488 10.6485L24.181 11.0739L23.5233 11.6776Z" fill="#763D16" stroke="#763D16" stroke-width="0.190386"/>
<path d="M16.3783 20.4686L17.3708 20.7733L19.4575 21.6242L16.3783 20.4686Z" fill="#E2761B" stroke="#E2761B" stroke-width="0.190386"/>
<path d="M23.0151 13.138L23.5233 11.6776L23.9598 11.9996L23.0151 13.138ZM23.0151 13.138L18.8955 11.8328L19.8761 11.3556L23.0151 13.138Z" fill="#763D16" stroke="#763D16" stroke-width="0.190386"/>
<path d="M20.8566 6.87679L19.8761 11.3556L18.8955 11.8329L20.8566 6.87679Z" fill="#763D16" stroke="#763D16" stroke-width="0.190386"/>
<path d="M23.8462 9.79179L19.876 11.3556L20.8566 6.87679L23.8462 9.79179Z" fill="#763D16" stroke="#763D16" stroke-width="0.190386"/>
<path d="M20.8565 6.87678L25 6.41682L23.8461 9.79177L20.8565 6.87678Z" fill="#763D16" stroke="#763D16" stroke-width="0.190386"/>
<path d="M23.0151 13.138L21.6339 14.0579L18.8955 11.8329L23.0151 13.138Z" fill="#F6851B" stroke="#F6851B" stroke-width="0.190386"/>
<path d="M24.8206 3.19136L25 6.41683L20.8565 6.87679L24.8206 3.19136Z" fill="#763D16" stroke="#763D16" stroke-width="0.190386"/>
<path d="M24.8207 3.19136L16.5396 8.9811L16.432 5.05419L24.8207 3.19136Z" fill="#E2761B" stroke="#E2761B" stroke-width="0.190386"/>
<path d="M10.2737 4.58274L16.4322 5.0542L16.5398 8.9811L10.2737 4.58274Z" fill="#F6851B" stroke="#F6851B" stroke-width="0.190386"/>
<path d="M18.8954 11.8329L16.5397 8.98111L20.8566 6.87679L18.8954 11.8329Z" fill="#763D16" stroke="#763D16" stroke-width="0.190386"/>
<path d="M18.8954 11.8329L21.6339 14.0579L17.7893 14.4661L18.8954 11.8329Z" fill="#E4761B" stroke="#E4761B" stroke-width="0.190386"/>
<path d="M17.7893 14.4661L16.5397 8.9811L18.8954 11.8328L17.7893 14.4661Z" fill="#E4761B" stroke="#E4761B" stroke-width="0.190386"/>
<path d="M20.8566 6.87679L16.5397 8.9811L24.8207 3.19136L20.8566 6.87679Z" fill="#763D16" stroke="#763D16" stroke-width="0.190386"/>
<path d="M10.3274 21.5323L12.2826 23.4928L9.62189 21.1643L10.3274 21.5323Z" fill="#C0AD9E" stroke="#C0AD9E" stroke-width="0.190386"/>
<path d="M19.4575 21.6242L20.3842 18.2378L22.2198 17.9848L19.4575 21.6242Z" fill="#CD6116" stroke="#CD6116" stroke-width="0.190386"/>
<path d="M2.39905 12.0973L5.78322 8.67638L2.83552 11.6891L2.39905 12.0973Z" fill="#E2761B" stroke="#E2761B" stroke-width="0.190386"/>
<path d="M22.2199 17.9848L20.3843 18.2378L21.634 14.0579L22.2199 17.9848ZM16.5398 8.9811L13.2453 8.87761L10.2737 4.58274L16.5398 8.9811Z" fill="#F6851B" stroke="#F6851B" stroke-width="0.190386"/>
<path d="M21.6339 14.0579L20.3842 18.2378L20.2826 16.1967L21.6339 14.0579Z" fill="#E4751F" stroke="#E4751F" stroke-width="0.190386"/>
<path d="M17.7893 14.4661L21.6339 14.0579L20.2826 16.1967L17.7893 14.4661Z" fill="#CD6116" stroke="#CD6116" stroke-width="0.190386"/>
<path d="M13.2451 8.87761L16.5396 8.9811L17.7892 14.4661L13.2451 8.87761Z" fill="#F6851B" stroke="#F6851B" stroke-width="0.190386"/>
<path d="M13.2452 8.87761L4.35427 0.966301L10.2736 4.58273L13.2452 8.87761ZM10.2676 22.7339L2.54261 25.0337L1 19.3704L10.2676 22.7339Z" fill="#E4761B" stroke="#E4761B" stroke-width="0.190386"/>
<path d="M3.54706 13.5117L6.46486 11.3096L8.91031 11.8558L3.54706 13.5117Z" fill="#763D16" stroke="#763D16" stroke-width="0.190386"/>
<path d="M8.91023 11.8559L6.46478 11.3097L7.77421 6.11211L8.91023 11.8559Z" fill="#763D16" stroke="#763D16" stroke-width="0.190386"/>
<path d="M2.83545 11.6891L6.46476 11.3096L3.54696 13.5117L2.83545 11.6891Z" fill="#763D16" stroke="#763D16" stroke-width="0.190386"/>
<path d="M20.2826 16.1967L18.7759 15.4665L17.7893 14.4661L20.2826 16.1967Z" fill="#CD6116" stroke="#CD6116" stroke-width="0.190386"/>
<path d="M2.83565 11.6891L2.57855 10.384L6.46496 11.3097L2.83565 11.6891Z" fill="#763D16" stroke="#763D16" stroke-width="0.190386"/>
<path d="M18.465 17.1109L18.7759 15.4665L20.2827 16.1967L18.465 17.1109Z" fill="#233447" stroke="#233447" stroke-width="0.190386"/>
<path d="M20.3843 18.2378L18.465 17.1109L20.2827 16.1967L20.3843 18.2378Z" fill="#F6851B" stroke="#F6851B" stroke-width="0.190386"/>
<path d="M6.46484 11.3097L2.57843 10.384L2.26154 9.28583L6.46484 11.3097ZM7.77426 6.11211L6.46484 11.3097L2.26154 9.28583L7.77426 6.11211ZM7.77426 6.11211L13.2451 8.87761L8.91029 11.8559L7.77426 6.11211Z" fill="#763D16" stroke="#763D16" stroke-width="0.190386"/>
<path d="M8.91028 11.8558L13.2451 8.87761L15.1764 14.5524L8.91028 11.8558ZM15.1764 14.5524L9.18532 14.4316L8.91028 11.8558L15.1764 14.5524Z" fill="#E4761B" stroke="#E4761B" stroke-width="0.190386"/>
<path d="M3.54706 13.5117L8.9103 11.8558L9.18534 14.4316L3.54706 13.5117ZM17.7893 14.4661L15.1764 14.5524L13.2451 8.87761L17.7893 14.4661Z" fill="#F6851B" stroke="#F6851B" stroke-width="0.190386"/>
<path d="M18.7759 15.4665L18.4649 17.1109L17.7893 14.4661L18.7759 15.4665Z" fill="#CD6116" stroke="#CD6116" stroke-width="0.190386"/>
<path d="M4.35437 0.966301L13.2453 8.87761L7.77441 6.1121L4.35437 0.966301Z" fill="#763D16" stroke="#763D16" stroke-width="0.190386"/>
<path d="M1 19.3704L8.49779 19.0715L10.2676 22.7339L1 19.3704Z" fill="#E4761B" stroke="#E4761B" stroke-width="0.190386"/>
<path d="M10.2676 22.7339L8.4978 19.0715L12.1809 18.899L10.2676 22.7339Z" fill="#CD6116" stroke="#CD6116" stroke-width="0.190386"/>
<path d="M18.4649 17.1109L20.3842 18.2378L21.4425 20.6353L18.4649 17.1109ZM9.18538 14.4316L1 19.3704L3.54709 13.5117L9.18538 14.4316ZM8.49779 19.0715L1 19.3704L9.18538 14.4316L8.49779 19.0715ZM17.7893 14.4661L18.2796 16.1795L15.9119 16.3117L17.7893 14.4661ZM15.9119 16.3117L15.1764 14.5524L17.7893 14.4661L15.9119 16.3117Z" fill="#F6851B" stroke="#F6851B" stroke-width="0.190386"/>
<path d="M12.2825 23.4928L10.2675 22.7339L17.275 23.8666L12.2825 23.4928Z" fill="#C0AD9E" stroke="#C0AD9E" stroke-width="0.190386"/>
<path d="M3.54703 13.5117L2.39905 12.0973L2.83552 11.6891L3.54703 13.5117Z" fill="#763D16" stroke="#763D16" stroke-width="0.190386"/>
<path d="M18.0702 23.0271L17.275 23.8666L10.2675 22.7339L18.0702 23.0271Z" fill="#D7C1B3" stroke="#D7C1B3" stroke-width="0.190386"/>
<path d="M18.4469 20.9688L10.2675 22.7339L12.1808 18.899L18.4469 20.9688Z" fill="#E4761B" stroke="#E4761B" stroke-width="0.190386"/>
<path d="M10.2675 22.7339L18.4469 20.9688L18.0702 23.0271L10.2675 22.7339Z" fill="#D7C1B3" stroke="#D7C1B3" stroke-width="0.190386"/>
<path d="M2.26149 9.28582L1.99243 4.86446L7.77422 6.1121L2.26149 9.28582ZM2.83548 11.6891L2.04026 10.9129L2.57838 10.384L2.83548 11.6891Z" fill="#763D16" stroke="#763D16" stroke-width="0.190386"/>
<path d="M13.8371 15.6908L15.1764 14.5524L14.9851 17.3351L13.8371 15.6908Z" fill="#CD6116" stroke="#CD6116" stroke-width="0.190386"/>
<path d="M15.1763 14.5524L13.837 15.6908L11.8878 16.6624L15.1763 14.5524Z" fill="#CD6116" stroke="#CD6116" stroke-width="0.190386"/>
<path d="M21.4426 20.6353L21.0779 20.3766L18.465 17.1109L21.4426 20.6353Z" fill="#F6851B" stroke="#F6851B" stroke-width="0.190386"/>
<path d="M11.888 16.6624L9.18549 14.4316L15.1765 14.5524L11.888 16.6624Z" fill="#CD6116" stroke="#CD6116" stroke-width="0.190386"/>
<path d="M14.9851 17.3351L15.1764 14.5524L15.9119 16.3117L14.9851 17.3351Z" fill="#E4751F" stroke="#E4751F" stroke-width="0.190386"/>
<path d="M1.77728 9.72278L2.26159 9.28582L2.57848 10.384L1.77728 9.72278Z" fill="#763D16" stroke="#763D16" stroke-width="0.190386"/>
<path d="M14.985 17.3351L11.8878 16.6624L13.837 15.6908L14.985 17.3351Z" fill="#233447" stroke="#233447" stroke-width="0.190386"/>
<path d="M7.77422 6.1121L1.99243 4.86446L4.35417 0.966301L7.77422 6.1121Z" fill="#763D16" stroke="#763D16" stroke-width="0.190386"/>
<path d="M17.275 23.8666L17.6039 24.729L12.2825 23.4928L17.275 23.8666Z" fill="#C0AD9E" stroke="#C0AD9E" stroke-width="0.190386"/>
<path d="M12.1808 18.899L11.8878 16.6624L14.985 17.3351L12.1808 18.899Z" fill="#F6851B" stroke="#F6851B" stroke-width="0.190386"/>
<path d="M9.18549 14.4316L11.888 16.6624L12.181 18.899L9.18549 14.4316Z" fill="#E4751F" stroke="#E4751F" stroke-width="0.190386"/>
<path d="M15.9119 16.3117L18.2796 16.1795L21.0778 20.3766L15.9119 16.3117ZM9.1854 14.4316L12.1809 18.899L8.4978 19.0715L9.1854 14.4316Z" fill="#F6851B" stroke="#F6851B" stroke-width="0.190386"/>
<path d="M15.9119 16.3117L18.8536 20.6181L14.9851 17.3351L15.9119 16.3117Z" fill="#E4751F" stroke="#E4751F" stroke-width="0.190386"/>
<path d="M14.9851 17.3351L18.8536 20.6181L18.447 20.9688L14.9851 17.3351Z" fill="#F6851B" stroke="#F6851B" stroke-width="0.190386"/>
<path d="M18.447 20.9688L12.1809 18.899L14.9851 17.3351L18.447 20.9688ZM21.0778 20.3766L18.8536 20.6181L15.9119 16.3117L21.0778 20.3766Z" fill="#F6851B" stroke="#F6851B" stroke-width="0.190386"/>
<path d="M21.6639 22.4004L20.7073 24.246L17.6041 24.729L21.6639 22.4004ZM17.6041 24.729L17.2753 23.8666L18.0705 23.0271L17.6041 24.729Z" fill="#C0AD9E" stroke="#C0AD9E" stroke-width="0.190386"/>
<path d="M18.0703 23.0271L18.6563 22.8029L17.6039 24.729L18.0703 23.0271ZM17.6039 24.729L18.6563 22.8029L21.6637 22.4004L17.6039 24.729Z" fill="#C0AD9E" stroke="#C0AD9E" stroke-width="0.190386"/>
<path d="M21.0778 20.3766L21.8133 20.8078L19.5771 21.0665L21.0778 20.3766Z" fill="#161616" stroke="#161616" stroke-width="0.190386"/>
<path d="M19.577 21.0665L18.8535 20.6181L21.0777 20.3766L19.577 21.0665ZM19.3199 21.4058L22.0404 21.0895L21.6637 22.4004L19.3199 21.4058Z" fill="#161616" stroke="#161616" stroke-width="0.190386"/>
<path d="M21.6638 22.4004L18.6563 22.8029L19.32 21.4058L21.6638 22.4004ZM18.6563 22.8029L18.0704 23.0271L18.4471 20.9688L18.6563 22.8029ZM18.4471 20.9688L18.8536 20.6181L19.5771 21.0665L18.4471 20.9688ZM21.8133 20.8078L22.0405 21.0895L19.32 21.4058L21.8133 20.8078Z" fill="#161616" stroke="#161616" stroke-width="0.190386"/>
<path d="M19.3198 21.4058L19.5769 21.0665L21.8131 20.8078L19.3198 21.4058ZM18.4469 20.9688L19.3198 21.4058L18.6562 22.8029L18.4469 20.9688Z" fill="#161616" stroke="#161616" stroke-width="0.190386"/>
<path d="M19.577 21.0665L19.3198 21.4058L18.4469 20.9688L19.577 21.0665Z" fill="#161616" stroke="#161616" stroke-width="0.190386"/>
</svg>
