<svg width="16" height="17" viewBox="0 0 16 17" fill="none" xmlns="http://www.w3.org/2000/svg">
<path d="M13.3333 7.83333C13.1565 7.83333 12.987 7.90357 12.8619 8.0286C12.7369 8.15362 12.6667 8.32319 12.6667 8.5V12.5C12.6667 12.6768 12.5964 12.8464 12.4714 12.9714C12.3464 13.0964 12.1768 13.1667 12 13.1667H4C3.82319 13.1667 3.65362 13.0964 3.5286 12.9714C3.40357 12.8464 3.33333 12.6768 3.33333 12.5V4.5C3.33333 4.32319 3.40357 4.15362 3.5286 4.0286C3.65362 3.90357 3.82319 3.83333 4 3.83333H8C8.17681 3.83333 8.34638 3.7631 8.4714 3.63807C8.59643 3.51305 8.66667 3.34348 8.66667 3.16667C8.66667 2.98986 8.59643 2.82029 8.4714 2.69526C8.34638 2.57024 8.17681 2.5 8 2.5H4C3.46957 2.5 2.96086 2.71071 2.58579 3.08579C2.21071 3.46086 2 3.96957 2 4.5V12.5C2 13.0304 2.21071 13.5391 2.58579 13.9142C2.96086 14.2893 3.46957 14.5 4 14.5H12C12.5304 14.5 13.0391 14.2893 13.4142 13.9142C13.7893 13.5391 14 13.0304 14 12.5V8.5C14 8.32319 13.9298 8.15362 13.8047 8.0286C13.6797 7.90357 13.5101 7.83333 13.3333 7.83333Z" fill="white"/>
<path d="M10.6668 3.83333H11.7201L7.52679 8.02C7.4643 8.08198 7.41471 8.15571 7.38086 8.23695C7.34702 8.31819 7.32959 8.40533 7.32959 8.49333C7.32959 8.58134 7.34702 8.66848 7.38086 8.74972C7.41471 8.83096 7.4643 8.90469 7.52679 8.96667C7.58876 9.02915 7.6625 9.07875 7.74374 9.11259C7.82498 9.14644 7.91211 9.16387 8.00012 9.16387C8.08813 9.16387 8.17527 9.14644 8.25651 9.11259C8.33775 9.07875 8.41148 9.02915 8.47346 8.96667L12.6668 4.78V5.83333C12.6668 6.01014 12.737 6.17971 12.8621 6.30474C12.9871 6.42976 13.1566 6.5 13.3335 6.5C13.5103 6.5 13.6798 6.42976 13.8049 6.30474C13.9299 6.17971 14.0001 6.01014 14.0001 5.83333V3.16667C14.0001 2.98986 13.9299 2.82029 13.8049 2.69526C13.6798 2.57024 13.5103 2.5 13.3335 2.5H10.6668C10.49 2.5 10.3204 2.57024 10.1954 2.69526C10.0704 2.82029 10.0001 2.98986 10.0001 3.16667C10.0001 3.34348 10.0704 3.51305 10.1954 3.63807C10.3204 3.7631 10.49 3.83333 10.6668 3.83333Z" fill="white"/>
</svg>
